<?xml version="1.0" encoding="UTF-8" standalone="no"?>
<!-- Created with Inkscape (http://www.inkscape.org/) -->

<svg
   width="186.7381mm"
   height="19.025999mm"
   viewBox="0 0 186.7381 19.025999"
   version="1.1"
   id="svg620"
   xmlns="http://www.w3.org/2000/svg"
   xmlns:svg="http://www.w3.org/2000/svg">
  <defs
     id="defs617" />
  <path
     id="path6218-0-3"
     style="font-weight:bold;font-size:25.4px;line-height:1.25;font-family:Aileron;-inkscape-font-specification:'Aileron Bold';letter-spacing:-1.32292px;fill:#727272;stroke-width:0.264583;fill-opacity:1"
     d="M 29.68811 0 L 29.68811 6.9597819 L 28.799276 5.5624512 C 28.113476 5.0798517 26.741875 4.8007406 25.624276 4.8007406 C 22.144479 4.8007406 19.147152 7.2645041 19.147152 12.166699 C 19.147152 16.154495 21.382343 19.024679 25.166939 19.024679 C 26.538538 19.024679 27.910152 18.668884 28.672152 18.084684 L 29.68811 16.586068 L 29.68811 18.669145 L 33.193323 18.669145 L 33.193323 0 L 29.68811 0 z M 101.65943 0 L 101.65943 14.325741 C 101.65943 15.21474 101.65927 15.849344 101.71007 16.458944 C 101.78627 18.211542 102.8783 18.846912 104.6055 18.846912 C 105.3929 18.846912 106.07874 18.821309 106.76454 18.745109 L 106.76454 16.332336 C 105.57074 16.408536 105.26616 16.179944 105.18996 15.494145 C 105.16456 15.138545 105.16464 14.782659 105.16464 14.249259 L 105.16464 0 L 101.65943 0 z M 164.31245 0 L 164.31245 6.9597819 L 163.42362 5.5624512 C 162.73782 5.0798517 161.36622 4.8007406 160.24862 4.8007406 C 156.76882 4.8007406 153.77149 7.2645041 153.77149 12.166699 C 153.77149 16.154495 156.00668 19.024679 159.79128 19.024679 C 161.16288 19.024679 162.53449 18.668884 163.29649 18.084684 L 164.31245 16.586068 L 164.31245 18.669145 L 167.81766 18.669145 L 167.81766 0 L 164.31245 0 z M 16.380912 0.12712402 C 15.237913 0.12712402 14.450281 0.88907551 14.450281 1.9812744 C 14.450281 3.0988733 15.237913 3.8354248 16.380912 3.8354248 C 17.523911 3.8354248 18.311027 3.0988733 18.311027 1.9812744 C 18.311027 0.88907551 17.523911 0.12712402 16.380912 0.12712402 z M 0 1.1430827 L 0 18.669145 L 3.5052124 18.669145 L 3.5052124 11.60756 L 5.5371297 11.60756 C 5.9943293 11.60756 6.4260227 11.607998 6.9086222 11.633398 C 8.3310208 11.734998 9.0421522 12.877641 9.270752 14.757239 C 9.4485518 16.408237 9.7029823 17.475346 10.134782 18.669145 L 13.970207 18.669145 C 13.259007 17.678546 12.9286 16.382857 12.7 14.249259 C 12.4968 12.293461 11.836142 10.845824 10.108944 10.185425 C 12.191742 9.6012254 13.538192 8.1785828 13.538192 5.917985 C 13.538192 2.895388 11.480537 1.5750064 8.9405396 1.2702067 C 8.0769404 1.1686068 7.4166419 1.1430827 6.4006429 1.1430827 L 0 1.1430827 z M 91.018734 1.1430827 L 84.694055 18.669145 L 88.428194 18.669145 L 90.180542 13.385746 L 96.073206 13.385746 L 97.800749 18.669145 L 101.61034 18.669145 L 95.412781 1.1430827 L 91.018734 1.1430827 z M 3.5052124 3.8860677 L 6.0704305 3.8860677 C 6.7054299 3.8860677 7.137326 3.9117489 7.5437256 3.9625488 C 8.9153242 4.1403487 9.8552124 4.7500043 9.8552124 6.4518026 C 9.8552124 8.1536009 8.7376358 8.8393779 7.3406372 8.9663778 C 6.9596376 8.9917777 6.5275844 8.9916992 5.917985 8.9916992 L 3.5052124 8.9916992 L 3.5052124 3.8860677 z M 93.152454 4.1403158 L 95.184371 10.61744 L 91.069377 10.61744 L 93.152454 4.1403158 z M 60.443339 4.8007406 C 57.217542 4.8007406 54.754078 6.527646 54.652478 9.5756429 L 58.055888 9.5503215 C 58.157488 8.0771229 58.919733 7.2641561 60.316732 7.2641561 C 61.68833 7.2641561 62.297692 7.9500976 62.399292 8.8898966 C 62.450092 9.3470962 62.449935 9.7537038 62.449935 10.160103 L 62.449935 10.439156 L 61.586422 10.439156 C 56.684227 10.439156 54.144499 12.115654 54.144499 15.087451 C 54.144499 17.652849 56.151105 19.024679 58.487903 19.024679 C 59.757902 19.024679 60.900871 18.770843 61.84067 18.135844 L 62.501095 16.68787 L 62.754826 18.669145 L 66.184074 18.669145 C 65.980874 17.170546 65.929826 16.255896 65.929826 15.239897 L 65.929826 10.871171 C 65.929826 10.134572 65.904661 9.4236102 65.853861 8.7886108 C 65.650662 6.4518132 64.227935 4.8007406 60.443339 4.8007406 z M 75.655847 4.8007406 C 74.360448 4.8007406 73.370082 5.0544188 72.404883 5.7402181 L 71.363603 7.3406372 L 71.363603 5.1562744 L 67.85839 5.1562744 L 67.85839 18.669145 L 71.363603 18.669145 L 71.363603 12.496912 C 71.363603 8.7377154 72.70968 7.2641561 74.411479 7.2641561 C 76.113277 7.2641561 76.900418 8.2297254 77.002018 9.652124 C 77.052818 10.337923 77.053178 10.972796 77.053178 11.531596 L 77.053178 18.669145 L 80.55839 18.669145 L 80.55839 11.048938 C 80.55839 9.9567391 80.532788 9.270805 80.456588 8.5850057 C 80.177188 6.2228081 78.526044 4.8007406 75.655847 4.8007406 z M 113.41737 4.8007406 C 110.19157 4.8007406 107.72759 6.527646 107.62599 9.5756429 L 111.02992 9.5503215 C 111.13152 8.0771229 111.89324 7.2641561 113.29024 7.2641561 C 114.66184 7.2641561 115.27172 7.9500976 115.37332 8.8898966 C 115.42412 9.3470962 115.42396 9.7537038 115.42396 10.160103 L 115.42396 10.439156 L 114.56045 10.439156 C 109.65825 10.439156 107.11801 12.115654 107.11801 15.087451 C 107.11801 17.652849 109.12462 19.024679 111.46141 19.024679 C 112.73141 19.024679 113.87438 18.770843 114.81418 18.135844 L 115.47461 16.68787 L 115.72885 18.669145 L 119.15758 18.669145 C 118.95438 17.170546 118.90385 16.255896 118.90385 15.239897 L 118.90385 10.871171 C 118.90385 10.134572 118.87817 9.4236102 118.82737 8.7886108 C 118.62417 6.4518132 117.20196 4.8007406 113.41737 4.8007406 z M 146.71249 4.8007406 C 142.2167 4.8007406 139.70207 7.7976553 139.70207 11.912451 C 139.70207 16.001847 142.2167 19.024679 146.71249 19.024679 C 151.20829 19.024679 153.72292 16.001847 153.72292 11.912451 C 153.72292 7.7976553 151.20829 4.8007406 146.71249 4.8007406 z M 175.68953 4.8007406 C 171.54934 4.8007406 168.83156 7.823415 168.83156 11.963611 C 168.83156 16.713406 171.70209 19.024679 175.41048 19.024679 C 178.58548 19.024679 181.12533 17.424178 181.81112 14.274581 L 178.30591 14.274581 C 178.07731 15.722379 176.98504 16.560746 175.48645 16.560746 C 173.86085 16.560746 172.59069 15.671921 172.36209 12.827124 L 181.96357 12.827124 C 182.01437 12.369924 182.01421 11.963598 182.01421 11.633398 C 182.01421 7.9504021 179.82973 4.8007406 175.68953 4.8007406 z M 14.628048 5.1562744 L 14.628048 18.669145 L 18.13326 18.669145 L 18.13326 5.1562744 L 14.628048 5.1562744 z M 33.521468 5.1562744 L 37.814229 18.669145 L 41.8021 18.669145 L 44.113586 8.3819173 L 46.399235 18.669145 L 50.361784 18.669145 L 54.654545 5.1562744 L 50.895085 5.1562744 L 48.532955 15.722555 L 46.24679 5.2069173 L 42.030509 5.2069173 L 39.820825 15.747876 L 37.433374 5.1562744 L 33.521468 5.1562744 z M 119.232 5.1562744 L 123.52424 18.669145 L 127.51211 18.669145 L 129.8236 8.3819173 L 132.10977 18.669145 L 136.0718 18.669145 L 140.36456 5.1562744 L 136.60562 5.1562744 L 134.24297 15.722555 L 131.95732 5.2069173 L 127.74104 5.2069173 L 125.53084 15.747876 L 123.14339 5.1562744 L 119.232 5.1562744 z M 26.310022 7.2641561 C 27.93562 7.2641561 29.68811 8.3564749 29.68811 11.404472 L 29.68811 12.064897 C 29.68811 15.366893 28.113296 16.560746 26.182898 16.560746 C 24.1001 16.560746 22.779488 14.70637 22.779488 11.937773 C 22.779488 8.8135757 24.278024 7.2641561 26.310022 7.2641561 z M 146.71249 7.2641561 C 148.82069 7.2641561 150.09058 8.9914541 150.09058 11.912451 C 150.09058 14.808048 148.82069 16.560746 146.71249 16.560746 C 144.60429 16.560746 143.3344 14.808048 143.3344 11.912451 C 143.3344 8.9914541 144.60429 7.2641561 146.71249 7.2641561 z M 160.93436 7.2641561 C 162.55996 7.2641561 164.31245 8.3564749 164.31245 11.404472 L 164.31245 12.064897 C 164.31245 15.366893 162.73764 16.560746 160.80724 16.560746 C 158.72444 16.560746 157.40383 14.70637 157.40383 11.937773 C 157.40383 8.8135757 158.90236 7.2641561 160.93436 7.2641561 z M 175.53709 7.2641561 C 177.21349 7.2641561 178.17912 8.4073608 178.40771 10.540959 L 172.46389 10.540959 C 172.76869 8.3057609 173.91149 7.2641561 175.53709 7.2641561 z M 61.446895 12.562024 C 61.765685 12.560635 62.100685 12.572797 62.449935 12.598197 L 62.449935 13.690637 C 62.449935 15.570235 61.256472 16.560746 59.834074 16.560746 C 58.589475 16.560746 57.776318 16.002197 57.776318 14.808398 C 57.776318 13.25265 59.215369 12.571747 61.446895 12.562024 z M 114.42092 12.562024 C 114.73971 12.560635 115.07471 12.572797 115.42396 12.598197 L 115.42396 13.690637 C 115.42396 15.570235 114.22998 16.560746 112.80758 16.560746 C 111.56299 16.560746 110.75035 16.002197 110.75035 14.808398 C 110.75035 13.25265 112.1894 12.571747 114.42092 12.562024 z M 184.53861 14.757239 C 183.87651 14.765747 183.20963 15.082359 182.84724 15.647624 C 182.42061 16.304513 182.38422 17.185305 182.71029 17.891414 C 182.99283 18.509314 183.62009 18.932372 184.29056 19.005042 C 185.00846 19.100141 185.79738 18.871187 186.26305 18.295007 C 186.78315 17.660318 186.86533 16.733463 186.56226 15.984554 C 186.31279 15.360615 185.71787 14.907123 185.05899 14.798063 C 184.90859 14.770363 184.75559 14.757756 184.60269 14.757756 C 184.58135 14.757387 184.55996 14.756964 184.53861 14.757239 z M 184.61819 15.571143 C 185.09936 15.56721 185.59026 15.825789 185.79331 16.273942 C 186.06519 16.849571 185.92599 17.640038 185.36956 17.996318 C 184.79768 18.368197 183.92038 18.260609 183.53143 17.67334 C 183.14065 17.09084 183.25302 16.184146 183.85751 15.787667 C 184.06841 15.647357 184.31995 15.580133 184.57168 15.572693 C 184.58717 15.572018 184.60267 15.571269 184.61819 15.571143 z " />
</svg>
