<?xml version="1.0" encoding="UTF-8" standalone="no"?>
<!-- Created with Inkscape (http://www.inkscape.org/) -->

<svg
   width="50mm"
   height="69.537003mm"
   viewBox="0 0 50 69.537003"
   version="1.1"
   id="svg1250"
   xmlns="http://www.w3.org/2000/svg"
   xmlns:svg="http://www.w3.org/2000/svg">
  <defs
     id="defs1247" />
  <path
     id="path1233"
     style="color:#000000;fill:#727272;stroke-width:1.00059;-inkscape-stroke:none;fill-opacity:1"
     d="M 4.9999998e-7,4.6281738e-5 V 1.7508463 19.536966 69.536956 H 25.513189 49.999999 l -22.33374,-22.33373 c 11.25174,-1.86771 19.85802,-11.66584 19.85802,-23.43923 0,-12.51412 -9.72273,-22.79983972 -22.01109,-23.69930972 V 8.6281738e-5 Z M 3.5021055,3.5021563 h 7.8563335 c -3.1954395,1.96365 -5.8928495,4.66171 -7.8563335,7.8573697 z m 18.5089835,0.076 V 41.548036 L 3.5160655,23.053026 C 3.8692435,12.758816 11.857469,4.4431663 22.011089,3.5781663 Z m 3.5021,0 c 10.38651,0.88485 18.50898,9.5656697 18.50898,20.1858297 0,10.62007 -8.12247,19.29909 -18.50898,20.18377 z M 4.0719145,28.560826 18.965039,43.453956 c -7.3482,-1.77653 -13.1167795,-7.5449 -14.8931245,-14.89313 z m -0.569809,7.60711 c 3.895544,6.33963 10.6814435,10.72044 18.5089835,11.2933 v 18.57361 H 3.5021055 Z m 22.0110835,13.83417 16.03274,16.03274 h -16.03274 z" />
</svg>
